<svg width="25" height="25" viewBox="0 0 25 25" fill="none" xmlns="http://www.w3.org/2000/svg">
<g id="logos:google-icon" clip-path="url(#clip0_1_50)">
<path id="Vector" d="M24.3155 13.1973C24.3155 12.2112 24.2336 11.4915 24.0564 10.7452H12.5311V15.1964H19.2962C19.1598 16.3025 18.4233 17.9684 16.7866 19.0878L16.7636 19.2368L20.4077 21.9952L20.6602 22.0198C22.9788 19.9275 24.3155 16.8489 24.3155 13.1973Z" fill="#4285F4"/>
<path id="Vector_2" d="M12.5311 24.9251C15.8454 24.9251 18.6278 23.8589 20.6602 22.0198L16.7866 19.0878C15.75 19.7942 14.3588 20.2873 12.5311 20.2873C9.28498 20.2873 6.52986 18.195 5.54773 15.303L5.40377 15.315L1.61462 18.1803L1.56506 18.3149C3.58366 22.233 7.73003 24.9251 12.5311 24.9251Z" fill="#34A853"/>
<path id="Vector_3" d="M5.54775 15.303C5.28861 14.5567 5.13863 13.7571 5.13863 12.9308C5.13863 12.1045 5.28861 11.3049 5.53412 10.5586L5.52725 10.3997L1.69061 7.48833L1.56508 7.54667C0.73312 9.17258 0.255737 10.9984 0.255737 12.9308C0.255737 14.8632 0.73312 16.689 1.56508 18.3149L5.54775 15.303Z" fill="#FBBC05"/>
<path id="Vector_4" d="M12.5311 5.57429C14.8361 5.57429 16.391 6.54716 17.2776 7.36016L20.742 4.05505C18.6143 2.12264 15.8454 0.936531 12.5311 0.936531C7.73003 0.936531 3.58366 3.62856 1.56506 7.54667L5.5341 10.5586C6.52986 7.66666 9.28498 5.57429 12.5311 5.57429Z" fill="#EB4335"/>
</g>
<defs>
<clipPath id="clip0_1_50">
<rect width="24.0713" height="24.0713" fill="white" transform="translate(0.255737 0.936531)"/>
</clipPath>
</defs>
</svg>
