<svg width="183" height="83" viewBox="0 0 183 83" fill="none" xmlns="http://www.w3.org/2000/svg">
<g id="Asset 2 1" clip-path="url(#clip0_1_5)">
<g id="Layer 1">
<g id="Group">
<g id="Group_2">
<path id="Vector" d="M65.6809 59.7557C65.6809 56.5135 66.7748 53.7732 68.9606 51.5368C71.1463 49.3025 73.8736 48.1843 77.1425 48.1843C80.2136 48.1843 82.8937 49.335 85.1782 51.6319C87.6992 49.3328 90.4566 48.1843 93.4504 48.1843C96.4442 48.1843 99.2209 49.3025 101.426 51.5368C103.631 53.771 104.734 56.5114 104.734 59.7557V76.0226C104.734 77.0672 103.891 77.9151 102.853 77.9151H99.8184C98.7803 77.9151 97.9379 77.0672 97.9379 76.0226V59.8746C97.9379 58.4558 97.5145 57.2922 96.6677 56.3859C95.8209 55.4797 94.669 55.0255 93.2118 55.0255C91.7547 55.0255 90.6715 55.4494 89.8441 56.2972C89.0167 57.1451 88.604 58.3195 88.604 59.8162V76.0247C88.604 77.0694 87.7615 77.9173 86.7235 77.9173H83.6888C82.6508 77.9173 81.8083 77.0694 81.8083 76.0247V59.8162C81.8083 58.4363 81.3957 57.2727 80.5682 56.3275C79.7021 55.4602 78.5975 55.0255 77.2607 55.0255C75.8422 55.0255 74.6989 55.4602 73.8349 56.3275C72.9688 57.1948 72.5346 58.3779 72.5346 59.8768V76.0247C72.5346 77.0694 71.6922 77.9173 70.6541 77.9173H67.5593C66.5212 77.9173 65.6788 77.0694 65.6788 76.0247V59.7578L65.6809 59.7557Z" fill="white"/>
<path id="Vector_2" d="M123.167 78.4472C118.953 78.4472 115.387 77.011 112.473 74.1366C109.558 71.2621 108.101 67.6847 108.101 63.4044C108.101 59.1241 109.597 55.3586 112.591 52.3457C115.585 49.3328 119.247 47.8275 123.58 47.8275C127.912 47.8275 131.476 49.335 134.274 52.3457C137.07 55.3586 138.469 59.282 138.469 64.1182V77.2511C138.469 77.6166 138.175 77.9129 137.811 77.9129C134.358 77.9129 131.557 75.0947 131.557 71.619V64.3561C131.557 61.4232 130.809 59.0744 129.312 57.3095C127.814 55.5467 125.826 54.6643 123.345 54.6643C121.1 54.6643 119.17 55.4948 117.556 57.1537C115.939 58.8127 115.133 60.7679 115.133 63.0194C115.133 65.4289 115.991 67.4641 117.704 69.123C119.417 70.782 121.534 71.6103 124.055 71.6103C124.921 71.6103 125.649 71.5455 126.24 71.4114C126.307 71.3962 126.376 71.3789 126.447 71.3573C127.646 71.0155 128.839 71.9023 128.839 73.1568V75.9512C128.839 76.7861 128.295 77.5214 127.502 77.7615C126.771 77.9843 126.152 78.1335 125.647 78.2092L123.165 78.4472H123.167Z" fill="white"/>
<path id="Vector_3" d="M152.237 78.0319C149.047 78.0319 146.428 77.024 144.379 75.0104C142.331 72.9946 141.308 70.3277 141.308 67.0077V46.8087C141.308 43.3655 144.083 40.5732 147.504 40.5732C147.867 40.5732 148.162 40.8695 148.162 41.235V48.0091C148.162 48.4006 148.478 48.7186 148.867 48.7186H151.717C152.755 48.7186 153.597 49.5664 153.597 50.6111V53.1892C153.597 54.2339 152.755 55.0817 151.717 55.0817H148.867C148.478 55.0817 148.162 55.3996 148.162 55.7911V67.0921C148.162 68.4807 148.594 69.6097 149.462 70.4813C150.328 71.3529 151.472 71.7899 152.888 71.7899C153.279 71.7899 153.597 72.11 153.597 72.5036V77.3203C153.597 77.7139 153.279 78.034 152.888 78.034H152.239L152.237 78.0319Z" fill="white"/>
<path id="Vector_4" d="M166.806 67.8599L165.976 66.8239C165.312 65.9934 165.458 64.7757 166.303 64.1311L174.902 57.5495C175.269 57.2684 175.302 56.7212 174.969 56.401C173.595 55.086 171.986 54.4285 170.137 54.4285C167.773 54.4285 165.686 55.3412 163.875 57.1645C162.063 58.9878 161.158 61.0685 161.158 63.4066C161.158 65.7446 162.005 67.648 163.698 69.3523C165.392 71.0566 167.36 71.9088 169.606 71.9088C172.138 71.9088 174.365 70.8468 176.288 68.7207C176.879 68.0697 177.844 67.9248 178.605 68.3639L181.023 69.7611C181.973 70.3104 182.256 71.5562 181.64 72.4668L180.892 73.572C180.576 74.0089 179.503 74.9195 177.672 76.3081C175.841 77.6966 173.172 78.3887 169.667 78.3887C165.373 78.3887 161.809 76.9721 158.972 74.1365C156.135 71.3032 154.719 67.7258 154.719 63.4044C154.719 59.083 156.146 55.3975 159.002 52.4646C161.859 49.5318 165.471 48.0654 169.843 48.0654C172.914 48.0654 175.386 48.7099 177.257 49.9968C179.127 51.2859 180.408 52.3565 181.098 53.2065C181.603 53.8316 182.168 54.7508 182.789 55.9641C183.208 56.7817 182.985 57.7831 182.259 58.3411L169.406 68.1757C168.596 68.7964 167.444 68.6537 166.806 67.8577V67.8599Z" fill="white"/>
</g>
<g id="Group_3">
<g id="Group_4">
<path id="Vector_5" d="M29.845 80.9609L29.7726 80.8696C29.7981 80.9022 29.8237 80.9326 29.845 80.9609Z" fill="white"/>
<path id="Vector_6" d="M28.7517 81.8537L28.6743 81.7563L30.8708 79.9763L30.903 80.0174C30.9202 80.039 30.9374 80.0585 30.9524 80.078L28.7517 81.8537Z" fill="white"/>
</g>
<g id="Group_5">
<path id="Vector_7" d="M61.8529 29.6615C61.4252 21.9488 58.1112 14.7659 52.2719 8.88938C46.5766 3.15778 39.0029 0 30.9499 0C22.897 0 15.3233 3.15778 9.62799 8.88938C3.93268 14.621 0.472509 21.9488 0.0469723 29.6615C-0.170094 33.5698 0.350006 37.6014 1.59438 41.6395C2.85809 45.7381 4.87187 49.8584 7.58197 53.89C7.80549 54.2209 8.00966 54.5194 8.20524 54.8005C8.72534 55.5489 9.31851 56.3838 9.97186 57.2792C12.2715 60.4435 15.2653 64.3518 18.1924 68.1065C18.4546 67.3084 18.9425 66.6011 19.6109 66.0626C20.2879 65.5175 21.1153 65.1866 21.9771 65.1088C18.9017 61.1637 16.3742 57.848 14.44 55.218C16.5569 53.7256 18.8565 52.5295 21.2808 51.6579C24.3778 50.5462 27.6316 49.9817 30.9499 49.9817C34.2683 49.9817 37.52 50.5462 40.6191 51.6579C43.3958 52.655 46.0006 54.076 48.3625 55.882C48.5538 56.0269 48.7279 56.1653 48.9041 56.3059L48.9149 56.3145C49.5274 56.8077 50.3226 57.0261 51.1006 56.918C51.8764 56.8077 52.5835 56.3773 53.0391 55.7327C53.267 55.4105 53.4862 55.1012 53.6903 54.8027C53.8902 54.5172 54.0944 54.2187 54.3158 53.89C57.0259 49.8606 59.0396 45.7381 60.3055 41.6395C61.5477 37.5993 62.07 33.5698 61.8529 29.6615ZM55.7063 40.2034C54.6102 43.7569 52.8629 47.356 50.5096 50.9031C48.0036 49.1273 45.272 47.7042 42.3857 46.6682C38.7214 45.351 34.8722 44.6827 30.9499 44.6827C27.0277 44.6827 23.1785 45.351 19.512 46.6682C16.6278 47.7042 13.8962 49.1273 11.3882 50.9031C9.03482 47.3538 7.28754 43.7569 6.19361 40.2034C5.11902 36.719 4.66984 33.2627 4.85252 29.9319C5.03306 26.6833 5.81965 23.5363 7.18868 20.5818C8.56415 17.6144 10.5285 14.8351 13.0323 12.3154C17.8185 7.49866 24.1822 4.84482 30.9499 4.84482C37.7177 4.84482 44.0814 7.49866 48.8676 12.3154C51.3692 14.8351 53.3357 17.6144 54.7112 20.5818C56.0802 23.5363 56.8647 26.6833 57.0452 29.9319C57.23 33.2627 56.7787 36.719 55.7063 40.2034ZM22.2307 69.5037C22.235 69.4669 22.2522 69.4388 22.278 69.415C22.3361 69.3696 22.4177 69.3804 22.4672 69.4431L22.5123 69.4972L24.2896 68.0632C24.0339 67.7366 23.7803 67.4144 23.531 67.0964C22.6305 66.6552 21.5194 66.7439 20.6855 67.4144C20.1267 67.8643 19.7764 68.5066 19.699 69.2225C19.6668 69.5167 19.6818 69.8065 19.7398 70.0877C24.1693 75.7371 28.1259 80.6468 28.848 81.5422L30.619 80.1017L22.2587 69.5989C22.2372 69.5708 22.2264 69.5383 22.2307 69.5037Z" fill="white"/>
<path id="Vector_8" d="M30.9503 12.5295C23.411 12.5295 17.2773 18.7001 17.2773 26.2875C17.2773 33.8748 23.411 40.0455 30.9503 40.0455C38.4896 40.0455 44.6212 33.8748 44.6212 26.2875C44.6212 18.7001 38.4874 12.5295 30.9503 12.5295ZM30.9503 35.3261C25.9964 35.3261 21.9667 31.2707 21.9667 26.2875C21.9667 21.3042 25.9964 17.2489 30.9503 17.2489C35.9041 17.2489 39.9317 21.3042 39.9317 26.2875C39.9317 31.2707 35.902 35.3261 30.9503 35.3261Z" fill="white"/>
</g>
<path id="Vector_9" d="M48.2103 61.8017C48.2103 62.4073 48.0104 62.9913 47.63 63.4736L33.093 81.9251L33.0457 81.9834C32.6976 82.4247 32.2269 82.7405 31.6874 82.8962C31.6402 82.9092 31.5864 82.9243 31.5327 82.9351C31.3414 82.9784 31.1459 83 30.9524 83C30.9137 83 30.8772 83 30.8407 82.9978C30.8063 82.9978 30.774 82.9935 30.7483 82.9913C30.6838 82.987 30.6193 82.9805 30.557 82.9697C30.5204 82.9654 30.4882 82.9611 30.4538 82.9546C30.3227 82.9286 30.2067 82.8962 30.0949 82.8594C30.0412 82.8399 29.9896 82.8205 29.9359 82.7989L29.9208 82.7924C29.8864 82.7794 29.8521 82.7642 29.8198 82.7469C29.7639 82.721 29.7167 82.6972 29.6801 82.6777C29.6285 82.6496 29.577 82.6215 29.5297 82.5912C29.4416 82.5328 29.3599 82.4766 29.2847 82.416C29.2223 82.3663 29.1622 82.3122 29.102 82.256C29.102 82.256 29.0869 82.2408 29.0805 82.2322L28.9709 82.1262L28.9537 82.1002C28.943 82.0873 28.9322 82.0765 28.9215 82.0635L28.8656 82.0051L28.8247 81.9445L28.6808 81.7628L20.2732 71.2037C20.0088 70.8728 19.8305 70.4921 19.7423 70.0877C19.6843 69.8065 19.6693 69.5167 19.7015 69.2225C19.7789 68.5066 20.1292 67.8643 20.688 67.4144C21.5219 66.7439 22.633 66.6552 23.5335 67.0964C23.8795 67.263 24.1933 67.5074 24.449 67.8275L24.5629 67.9681L30.9395 75.9793L43.437 60.1212C44.3504 58.9597 46.0396 58.7629 47.198 59.6843C47.759 60.132 48.1136 60.7722 48.1952 61.4881C48.2081 61.5919 48.2124 61.6979 48.2124 61.8017H48.2103Z" fill="white"/>
<path id="Vector_10" d="M48.2103 61.8017C48.2103 62.4073 48.0104 62.9913 47.63 63.4736L33.093 81.9251L33.0457 81.9834C32.6976 82.4247 32.2269 82.7405 31.6874 82.8962C31.6402 82.9092 31.5864 82.9243 31.5327 82.9351C31.3414 82.9784 31.1459 83 30.9524 83C30.9137 83 30.8772 83 30.8407 82.9978C30.8063 82.9978 30.774 82.9935 30.7483 82.9913C30.6838 82.987 30.6193 82.9805 30.557 82.9697C30.5204 82.9654 30.4882 82.9611 30.4538 82.9546C30.3227 82.9286 30.2067 82.8962 30.0949 82.8594C30.0412 82.8399 29.9896 82.8205 29.9359 82.7989L29.9208 82.7924C29.8864 82.7794 29.8521 82.7642 29.8198 82.7469C29.7639 82.721 29.7167 82.6972 29.6801 82.6777C29.6285 82.6496 29.577 82.6215 29.5297 82.5912C29.4416 82.5328 29.3599 82.4766 29.2847 82.416C29.2223 82.3663 29.1622 82.3122 29.102 82.256C29.102 82.256 29.0869 82.2408 29.0805 82.2322L28.9709 82.1262L28.9537 82.1002C28.943 82.0873 28.9322 82.0765 28.9215 82.0635L28.8656 82.0051L28.8247 81.9445L28.6808 81.7628L20.2732 71.2037C20.0088 70.8728 19.8305 70.4921 19.7423 70.0877C19.6843 69.8065 19.6693 69.5167 19.7015 69.2225C19.7789 68.5066 20.1292 67.8643 20.688 67.4144C21.5219 66.7439 22.633 66.6552 23.5335 67.0964C23.8795 67.263 24.1933 67.5074 24.449 67.8275L24.5629 67.9681L30.9395 75.9793L43.437 60.1212C44.3504 58.9597 46.0396 58.7629 47.198 59.6843C47.759 60.132 48.1136 60.7722 48.1952 61.4881C48.2081 61.5919 48.2124 61.6979 48.2124 61.8017H48.2103Z" fill="white"/>
</g>
<g id="Group_6">
<path id="Vector_11" d="M76.6116 41.0038C73.4223 41.0038 70.8024 39.9959 68.7542 37.9822C66.7061 35.9664 65.6831 33.2996 65.6831 29.9796V9.78062C65.6831 6.33734 68.4577 3.54507 71.8791 3.54507C72.2424 3.54507 72.5368 3.84139 72.5368 4.20691V10.981C72.5368 11.3725 72.8527 11.6904 73.2417 11.6904H76.0915C77.1296 11.6904 77.972 12.5383 77.972 13.5829V16.1611C77.972 17.2057 77.1296 18.0536 76.0915 18.0536H73.2417C72.8527 18.0536 72.5368 18.3715 72.5368 18.763V30.064C72.5368 31.4525 72.9688 32.5816 73.837 33.4532C74.7032 34.3248 75.8465 34.7617 77.2628 34.7617C77.654 34.7617 77.972 35.0818 77.972 35.4755V40.2922C77.972 40.6858 77.654 41.0059 77.2628 41.0059H76.6138L76.6116 41.0038Z" fill="white"/>
<path id="Vector_12" d="M80.2158 22.297C80.2158 19.1998 81.3183 16.5676 83.5234 14.4025C85.7284 12.2375 88.387 11.1561 91.499 11.1561H92.3844C92.8422 11.1561 93.2119 11.5281 93.2119 11.9888V16.8639C93.2119 17.3246 92.8422 17.6966 92.3844 17.6966C90.7682 17.6966 89.4787 18.1854 88.5138 19.1608C87.5488 20.1363 87.0674 21.4427 87.0674 23.0756V38.9922C87.0674 40.0368 86.2249 40.8847 85.1868 40.8847H82.092C81.054 40.8847 80.2115 40.0368 80.2115 38.9922V22.297H80.2158Z" fill="white"/>
<path id="Vector_13" d="M100.134 11.6903H96.9837C95.9451 11.6903 95.1031 12.5376 95.1031 13.5828V38.9922C95.1031 40.0374 95.9451 40.8847 96.9837 40.8847H100.134C101.173 40.8847 102.015 40.0374 102.015 38.9922V13.5828C102.015 12.5376 101.173 11.6903 100.134 11.6903Z" fill="white"/>
<path id="Vector_14" d="M105.026 25.2861C105.026 21.367 106.502 17.9842 109.457 15.1336C112.413 12.2829 115.995 10.8576 120.21 10.8576C124.424 10.8576 128.028 12.3045 130.904 15.1985C133.78 18.0924 135.217 21.7 135.217 26.0193C135.217 30.3385 133.76 34.0262 130.846 36.9591C127.932 39.8919 124.289 41.3583 119.915 41.3583C118.761 41.3583 117.336 41.1355 115.638 40.6878C114.815 40.4715 114.244 39.7167 114.244 38.8602V35.9771C114.244 34.7335 115.417 33.8272 116.61 34.1495L116.666 34.1646C117.216 34.2836 117.945 34.342 118.851 34.342C121.845 34.342 124.149 33.6196 125.763 32.1726C127.377 30.7257 128.185 28.6342 128.185 25.9003C128.185 23.6012 127.397 21.6589 125.821 20.0736C124.246 18.4882 122.316 17.6944 120.031 17.6944C117.747 17.6944 115.916 18.4774 114.3 20.0389C112.683 21.6027 111.877 23.532 111.877 25.8268V47.3127C111.877 50.756 109.103 53.5482 105.681 53.5482C105.318 53.5482 105.024 53.2519 105.024 52.8864V25.2861H105.026Z" fill="white"/>
<path id="Vector_15" d="M101.888 7.06392L98.6923 10.3472C98.6171 10.4229 98.4988 10.4229 98.4258 10.3472L95.23 7.06392C94.4412 6.25285 94.4412 4.93999 95.23 4.13107C95.9886 3.35028 97.3211 3.34595 98.0841 4.13107L98.559 4.61988L99.034 4.13107C99.7969 3.34595 101.127 3.35028 101.888 4.13107C102.675 4.93782 102.675 6.25068 101.888 7.06392Z" fill="white"/>
</g>
</g>
</g>
</g>
<defs>
<clipPath id="clip0_1_5">
<rect width="183" height="83" fill="white"/>
</clipPath>
</defs>
</svg>
